<svg xmlns="http://www.w3.org/2000/svg" xmlns:xlink="http://www.w3.org/1999/xlink" width="500" zoomAndPan="magnify" viewBox="0 0 375 374.999991" height="500" preserveAspectRatio="xMidYMid meet" version="1.0"><defs><clipPath id="36ed3ea53d"><path d="M 53.699219 22.570312 L 321.449219 22.570312 L 321.449219 352.570312 L 53.699219 352.570312 Z M 53.699219 22.570312 " clip-rule="nonzero"/></clipPath></defs><path fill="#5ab334" d="M 255.875 225.164062 C 255.253906 225.878906 254.601562 226.527344 253.925781 227.132812 C 229.859375 248.503906 170.953125 199.511719 157.695312 186.253906 C 146.066406 174.628906 111.492188 133.375 111.398438 105.710938 C 111.375 98.746094 113.527344 92.644531 118.78125 88.09375 C 121.894531 85.390625 131.363281 78.535156 135.789062 80.589844 C 142.335938 83.625 151.628906 98.339844 155.664062 105.128906 C 156.894531 107.207031 156.914062 109.78125 155.714844 111.871094 C 152.8125 116.925781 147.746094 126.386719 148.359375 129.898438 C 149.863281 138.480469 165.996094 158.394531 175.523438 168.429688 C 185.558594 177.953125 205.476562 194.089844 214.066406 195.589844 C 217.574219 196.199219 227.035156 191.136719 232.089844 188.238281 C 234.183594 187.039062 236.757812 187.054688 238.828125 188.285156 C 245.625 192.320312 260.335938 201.613281 263.371094 208.15625 C 265.425781 212.582031 258.574219 222.050781 255.875 225.164062 " fill-opacity="1" fill-rule="nonzero"/><g clip-path="url(#36ed3ea53d)"><path fill="#5ab334" d="M 187.574219 22.589844 C 115.109375 22.589844 56.109375 80.207031 53.882812 152.121094 C 53.839844 153.523438 53.808594 154.925781 53.808594 156.335938 C 53.808594 201.246094 75.953125 240.984375 109.914062 265.234375 L 114.320312 235.621094 C 92.980469 215.898438 79.613281 187.679688 79.613281 156.335938 C 79.613281 155.195312 79.640625 154.0625 79.671875 152.933594 C 81.472656 94.894531 129.089844 48.390625 187.574219 48.390625 C 247.199219 48.390625 295.535156 96.722656 295.535156 156.335938 C 295.535156 211.472656 254.1875 256.949219 200.804688 263.472656 C 196.46875 264.003906 192.050781 264.28125 187.574219 264.28125 C 180.433594 264.28125 173.457031 263.578125 166.707031 262.253906 C 164.292969 261.785156 161.910156 261.230469 159.558594 260.601562 C 159.515625 260.589844 159.472656 260.578125 159.429688 260.566406 C 157.710938 260.105469 156.011719 259.601562 154.332031 259.058594 C 154.265625 259.039062 154.199219 259.015625 154.132812 258.992188 C 152.46875 258.449219 150.828125 257.875 149.203125 257.253906 C 149.132812 257.226562 149.0625 257.203125 148.988281 257.171875 C 147.359375 256.550781 145.75 255.886719 144.160156 255.1875 C 144.101562 255.164062 144.046875 255.140625 143.992188 255.113281 C 143.460938 254.878906 142.929688 254.640625 142.402344 254.398438 L 142.371094 254.386719 C 141.285156 253.878906 140.210938 253.363281 139.144531 252.828125 L 96.914062 352.589844 L 166.964844 288.503906 C 173.683594 289.542969 180.566406 290.082031 187.574219 290.082031 C 193.125 290.082031 198.597656 289.738281 203.96875 289.078125 C 270.109375 281 321.339844 224.652344 321.339844 156.335938 C 321.339844 82.46875 261.453125 22.589844 187.574219 22.589844 " fill-opacity="1" fill-rule="nonzero"/></g></svg>