<svg xmlns="http://www.w3.org/2000/svg" xmlns:xlink="http://www.w3.org/1999/xlink" width="500" zoomAndPan="magnify" viewBox="0 0 375 374.999991" height="500" preserveAspectRatio="xMidYMid meet" version="1.0"><defs><g/><clipPath id="91baf8854c"><path d="M 66 87.410156 L 307 87.410156 L 307 327 L 66 327 Z M 66 87.410156 " clip-rule="nonzero"/></clipPath></defs><g clip-path="url(#91baf8854c)"><path fill="#00bf63" d="M 186.9375 87.1875 C 120.734375 87.1875 66.925781 140.996094 66.925781 207.199219 C 73.511719 366.394531 300.359375 366.394531 306.949219 207.199219 C 306.949219 140.996094 253.136719 87.1875 186.9375 87.1875 Z M 250.90625 257.546875 C 243.761719 264.46875 234.941406 276.300781 223.441406 274.070312 C 197.988281 271.054688 173.316406 259.890625 153.78125 240.355469 C 136.140625 223.945312 108.007812 173.59375 125.871094 153.949219 C 125.871094 153.949219 136.476562 143.339844 136.476562 143.339844 C 140.609375 139.210938 147.527344 139.433594 151.324219 144.011719 L 162.042969 161.875 C 168.183594 169.578125 161.59375 175.941406 156.011719 181.074219 C 151.660156 185.429688 151.4375 191.902344 154.003906 197.597656 C 162.824219 217.359375 177 231.648438 196.761719 240.355469 C 202.453125 242.8125 208.929688 242.699219 213.285156 238.34375 L 218.753906 232.875 C 222.4375 229.191406 228.355469 228.855469 232.375 232.316406 L 250.234375 243.035156 C 254.8125 246.828125 255.035156 253.75 250.90625 257.882812 Z M 250.90625 257.546875 " fill-opacity="1" fill-rule="nonzero"/></g><g fill="#000000" fill-opacity="1"><g transform="translate(184.931515, 405.264672)"><g><path d="M 2.875 -27.484375 C 2.875 -29.421875 3.953125 -30.390625 6.109375 -30.390625 C 8.273438 -30.390625 9.359375 -29.421875 9.359375 -27.484375 C 9.359375 -26.554688 9.085938 -25.832031 8.546875 -25.3125 C 8.003906 -24.800781 7.191406 -24.546875 6.109375 -24.546875 C 3.953125 -24.546875 2.875 -25.523438 2.875 -27.484375 Z M 9.078125 0 L 3.125 0 L 3.125 -21.84375 L 9.078125 -21.84375 Z M 9.078125 0 "/></g></g></g></svg>